# xmcd
#
# Track frame offsets:
#	150
#	13831
#	29057
#	47006
#	63455
#	83357
#	97863
#	113839
#	128018
#	147776
#	165733
#	180174
#	196028
#	221330
#
# Disc length: 3257 seconds
#
# Revision: 0
# Processed by: cddbd v1.5.2PL0 Copyright (c) Steve Scherf et al.
# Submitted via: EasyCDDAExtractor 12.0.1.1
#
DISCID=ac0cb70e
DTITLE=Søren Carter - Twenty-Five
DYEAR=2009
DGENRE=
TTITLE0=Cross The Line
TTITLE1=Stay With Me
TTITLE2=Promises
TTITLE3=Love Drug
TTITLE4=Man I Used To Be
TTITLE5=1000 Times
TTITLE6=Rain
TTITLE7=7
TTITLE8=Mother
TTITLE9=Words To Say
TTITLE10=Cross The Line (Radio Mix)
TTITLE11=Stay With Me (radio Mix)
TTITLE12=Cross The Line (Remix)
TTITLE13=Stay With Me (Remix)
EXTD=
EXTT0=
EXTT1=
EXTT2=
EXTT3=
EXTT4=
EXTT5=
EXTT6=
EXTT7=
EXTT8=
EXTT9=
EXTT10=
EXTT11=
EXTT12=
EXTT13=
PLAYORDER=
